<svg xmlns="http://www.w3.org/2000/svg" xml:space="preserve" style="fill-rule:evenodd;clip-rule:evenodd;stroke-linecap:round;stroke-linejoin:round;stroke-miterlimit:1.5" viewBox="-9.28 -10.02 106.81 118.32"><path d="m20 50 30-10 10-30 10 30 30 10-30 10-10 30-10-30-30-10Z" style="fill:none;stroke:#d9d9d9;stroke-width:8.33px" transform="translate(-6.631)"/><path d="m20 50 30-10 10-30 10 30 30 10-30 10-10 30-10-30-30-10Z" style="fill:none;stroke:#d9d9d9;stroke-width:28.53px" transform="matrix(.2921 0 0 .2921 -.858 1.323)"/><path d="m20 50 30-10 10-30 10 30 30 10-30 10-10 30-10-30-30-10Z" style="fill:none;stroke:#d9d9d9;stroke-width:39.9px" transform="translate(12.492 69.558) scale(.20883)"/></svg>