<svg xmlns="http://www.w3.org/2000/svg" xml:space="preserve" style="fill-rule:evenodd;clip-rule:evenodd;stroke-linecap:round;stroke-linejoin:round;stroke-miterlimit:1.5" viewBox="4.58 6.83 91.32 87.33"><path d="M40 70s-15-6.149-20-10c-4.353-3.352-8.333-8.103-10-13.103-1.667-5-1.667-12.248 0-16.897 1.667-4.649 5.902-8.214 10-11 4.167-2.833 10-4.667 15-6 4.874-1.3 10-2 15-2s10.126.7 15 2c5 1.333 10.833 3.167 15 6 4.098 2.786 8.385 6.315 10 11 1.667 4.833 2.898 12.746 0 18-3.333 6.042-13.089 12.448-20 18.253C61.667 73.253 40 90 40 90V70Z" style="fill:none;stroke:#6e767d;stroke-width:8.33px"/></svg>