<?xml version="1.0" encoding="UTF-8"?>
<!DOCTYPE svg  PUBLIC '-//W3C//DTD SVG 1.1//EN'  'http://www.w3.org/Graphics/SVG/1.1/DTD/svg11.dtd'>
<svg clip-rule="evenodd" fill-rule="evenodd" stroke-linecap="round" stroke-linejoin="round" stroke-miterlimit="1.5" version="1.1" viewBox="0 0 100 100" xml:space="preserve" xmlns="http://www.w3.org/2000/svg">
    
        <path d="m65.829 95.013h-11.713s-1.411-3.647-1.846-5.546c-0.467-2.037-0.955-6.677-0.955-6.677s-9.575 2.32-12.987 3.82c-2.777 1.22-4.939 3.563-7.486 5.176-2.534 1.605-4.883 3.772-7.793 4.5-3.506 0.877-13.241 0.764-13.241 0.764s12.592-16.058 17.048-21.448c3.096-3.745 7.056-8.228 9.689-10.892 1.865-1.886 4.16-3.438 6.112-5.093 1.882-1.595 3.737-3.222 5.602-4.838 1.91-1.655 4.329-3.31 5.857-5.093 1.411-1.647 2.504-3.862 3.31-5.602 0.711-1.535 1.275-3.212 1.528-4.838 0.252-1.62 0.361-3.322-0.012-4.918-0.374-1.601-1.472-3.174-2.234-4.688-0.746-1.484-1.94-2.878-2.338-4.4-0.398-1.521-0.041-3.16-0.05-4.731-8e-3 -1.564 0.226-3.372 0-4.693-0.197-1.152-1.025-2.191-1.356-3.234-0.31-0.981-0.66-2.121-0.625-3.025 0.032-0.846 0.417-1.79 0.834-2.399 0.393-0.573 1.669-1.251 1.669-1.251s0.238 1.317 0.313 1.982c0.104 0.921 0.017 2.416 0.313 3.546 0.295 1.13 0.762 2.278 1.46 3.233 0.991 1.356 4.485 4.902 4.485 4.902s1.315-2.332 1.877-3.546c0.661-1.425 1.21-3.76 2.086-5.006 0.406-0.577 1.118-2.778 1.712-3.443 0.732-0.819 2.252-0.938 2.252-0.938s-0.018 1.414-0.209 2.086c-0.295 1.043-1.234 2.851-1.564 4.172-0.306 1.222-0.368 2.497-0.417 3.755-0.053 1.339-0.226 2.889 0.104 4.276 0.434 1.826 1.669 4.468 2.503 6.676 0.829 2.192 1.964 4.728 2.503 6.571 0.426 1.454 0.218 3.059 0.73 4.485 0.644 1.79 2.313 4.189 3.13 6.258 0.784 1.985 1.504 4.036 1.773 6.154 0.278 2.19 0.156 4.885-0.105 6.988-0.238 1.925-0.886 3.877-1.46 5.632-0.547 1.676-1.044 3.41-1.982 4.903-0.938 1.495-2.312 2.851-3.65 4.067-1.339 1.217-3.042 2.33-4.381 3.234-1.176 0.794-2.503 1.547-3.65 2.19-1.058 0.593-2.186 1.059-3.234 1.669-1.165 0.678-2.976 1.488-3.755 2.399-0.693 0.811-1.079 2.012-0.918 3.066 0.286 1.86 1.28 7.342 2.629 8.094 0.611 0.341 5.852-0.179 7.259 0.105 0.65 0.13 1.183 1.596 1.183 1.596z" fill="#d9d9d9" stroke="#d9d9d9" stroke-width="1px"/>
        <g transform="matrix(1.0135 0 0 1.52 -3.3326 -15.287)">
            <ellipse cx="59.446" cy="25.105" rx=".991" ry="1.043" fill="#fff"/>
        </g>
    
    
</svg>
