<svg viewBox="0 0 100 100" xmlns="http://www.w3.org/2000/svg" xml:space="preserve" style="fill-rule:evenodd;clip-rule:evenodd;stroke-linecap:round;stroke-linejoin:round;stroke-miterlimit:1.5"><path d="M65.829 95.013H54.116s-1.411-3.647-1.846-5.546c-.467-2.037-.955-6.677-.955-6.677s-9.575 2.32-12.987 3.82c-2.777 1.22-4.939 3.563-7.486 5.176-2.534 1.605-4.883 3.772-7.793 4.5-3.506.877-13.241.764-13.241.764S22.4 80.992 26.856 75.602c3.096-3.745 7.056-8.228 9.689-10.892 1.865-1.886 4.16-3.438 6.112-5.093 1.882-1.595 3.737-3.222 5.602-4.838 1.91-1.655 4.329-3.31 5.857-5.093 1.411-1.647 2.504-3.862 3.31-5.602.711-1.535 1.275-3.212 1.528-4.838.252-1.62.361-3.322-.012-4.918-.374-1.601-1.472-3.174-2.234-4.688-.746-1.484-1.94-2.878-2.338-4.4-.398-1.521-.041-3.16-.05-4.731-.008-1.564.226-3.372 0-4.693-.197-1.152-1.025-2.191-1.356-3.234-.31-.981-.66-2.121-.625-3.025.032-.846.417-1.79.834-2.399.393-.573 1.669-1.251 1.669-1.251s.238 1.317.313 1.982c.104.921.017 2.416.313 3.546.295 1.13.762 2.278 1.46 3.233.991 1.356 4.485 4.902 4.485 4.902s1.315-2.332 1.877-3.546c.661-1.425 1.21-3.76 2.086-5.006.406-.577 1.118-2.778 1.712-3.443.732-.819 2.252-.938 2.252-.938s-.018 1.414-.209 2.086c-.295 1.043-1.234 2.851-1.564 4.172-.306 1.222-.368 2.497-.417 3.755-.053 1.339-.226 2.889.104 4.276.434 1.826 1.669 4.468 2.503 6.676.829 2.192 1.964 4.728 2.503 6.571.426 1.454.218 3.059.73 4.485.644 1.79 2.313 4.189 3.13 6.258.784 1.985 1.504 4.036 1.773 6.154.278 2.19.156 4.885-.105 6.988-.238 1.925-.886 3.877-1.46 5.632-.547 1.676-1.044 3.41-1.982 4.903-.938 1.495-2.312 2.851-3.65 4.067-1.339 1.217-3.042 2.33-4.381 3.234-1.176.794-2.503 1.547-3.65 2.19-1.058.593-2.186 1.059-3.234 1.669-1.165.678-2.976 1.488-3.755 2.399-.693.811-1.079 2.012-.918 3.066.286 1.86 1.28 7.342 2.629 8.094.611.341 5.852-.179 7.259.105.65.13 1.183 1.596 1.183 1.596Z" style="fill:#1c9aef;stroke:#1c9aef;stroke-width:1px"/><ellipse cx="59.446" cy="25.105" rx=".991" ry="1.043" style="fill:#fff" transform="matrix(1.01347 0 0 1.52 -3.333 -15.287)"/></svg>